<svg viewBox="0 0 120 120" xmlns="http://www.w3.org/2000/svg">
  <defs>
    <linearGradient id="glassGradientWhite" x1="0%" y1="0%" x2="100%" y2="100%">
      <stop offset="0%" style="stop-color:#FFFFFF;stop-opacity:0.75"/>
      <stop offset="50%" style="stop-color:#E8E8E8;stop-opacity:0.45"/>
      <stop offset="100%" style="stop-color:#FFFFFF;stop-opacity:0.85"/>
    </linearGradient>
    <linearGradient id="highlightWhite" x1="0%" y1="0%" x2="100%" y2="0%">
      <stop offset="0%" style="stop-color:#FFFFFF;stop-opacity:0.4"/>
      <stop offset="100%" style="stop-color:#FFFFFF;stop-opacity:0.2"/>
    </linearGradient>
    <filter id="shadowWhite" x="-50%" y="-50%" width="200%" height="200%">
      <feDropShadow dx="1" dy="2" stdDeviation="2" flood-color="#000000" flood-opacity="0.15"/>
    </filter>
  </defs>
  <g transform="translate(15, 10)">
    <g filter="url(#shadowWhite)">
      <rect x="0" y="55" width="45" height="35" rx="4" fill="url(#glassGradientWhite)" opacity="0.55"/>
      <rect x="15" y="35" width="45" height="55" rx="4" fill="url(#glassGradientWhite)" opacity="0.65"/>
      <rect x="30" y="10" width="45" height="80" rx="4" fill="url(#glassGradientWhite)" stroke="#FFFFFF" stroke-width="1" opacity="0.8"/>
      <g stroke="#FFFFFF" stroke-width="0.6" opacity="0.6" fill="none">
        <line x1="37" y1="18" x2="68" y2="18"/>
        <line x1="37" y1="25" x2="68" y2="25"/>
        <line x1="37" y1="32" x2="68" y2="32"/>
        <line x1="37" y1="39" x2="68" y2="39"/>
        <line x1="37" y1="46" x2="68" y2="46"/>
        <line x1="37" y1="53" x2="68" y2="53"/>
        <line x1="37" y1="60" x2="68" y2="60"/>
        <line x1="37" y1="67" x2="68" y2="67"/>
        <line x1="37" y1="74" x2="68" y2="74"/>
        <line x1="37" y1="81" x2="68" y2="81"/>
        <line x1="42" y1="15" x2="42" y2="83"/>
        <line x1="48" y1="15" x2="48" y2="83"/>
        <line x1="54" y1="15" x2="54" y2="83"/>
        <line x1="60" y1="15" x2="60" y2="83"/>
        <line x1="66" y1="15" x2="66" y2="83"/>
      </g>
    </g>
    <rect x="35" y="15" width="8" height="70" rx="2" fill="url(#highlightWhite)" opacity="0.3"/>
  </g>
</svg>
